<svg width="18" height="18" viewBox="0 0 18 18" fill="none" xmlns="http://www.w3.org/2000/svg">
<path d="M8.625 1.5H14.25C15.9069 1.5 17.25 2.76724 17.25 4.33045V10.699C17.25 12.2622 15.9069 13.5294 14.25 13.5294H9.58609C8.73563 13.5294 7.92513 13.87 7.3562 14.4664L5.52874 16.3822C5.29882 16.6232 4.875 16.4697 4.875 16.1455V14.237C4.875 13.8462 4.53921 13.5294 4.125 13.5294H3.75C2.09315 13.5294 0.75 12.2622 0.75 10.699V4.33045C0.75 2.76724 2.09315 1.5 3.75 1.5H4.5M6 1.5H7.125M7.87799 5.58455C7.83737 5.24865 8.20589 4.30809 9.25912 4.53488C10.1934 4.73607 10.3965 5.79448 9.74658 6.42428C9.38098 6.81783 8.8854 7.48234 9.01539 8.18772M8.79653 9.62808C8.9074 9.75271 9.08991 9.78856 9.24031 9.70395C9.38778 9.62099 9.45793 9.44834 9.42188 9.28713M8.79653 9.62808C8.77666 9.60574 8.75909 9.58055 8.74442 9.55269C8.6479 9.36938 8.71342 9.13991 8.89077 9.04014C9.06812 8.94038 9.29013 9.0081 9.38665 9.19141C9.40291 9.22228 9.41457 9.25447 9.42188 9.28713M8.79653 9.62808C8.95811 9.68826 9.30937 9.70433 9.42188 9.28713" stroke="#1A1A1A" stroke-linecap="round"></path>
</svg>